 <svg
      width="44"
      height="44"
      viewBox="0 0 44 44"
      fill="#1f2026"
      xmlns="http://www.w3.org/2000/svg"
    >
      <path
        d="M22 0C40.3333 0 44 3.66667 44 22C44 40.3333 40.3333 44 22 44C3.66667 44 0 40.3333 0 22C0 3.66667 3.66667 0 22 0Z"
        fill="#44bd32"
      />
      <path
        fillRule="evenodd"
        clipRule="evenodd"
        d="M32.7084 26.6639C32.1222 26.3724 29.2386 24.9619 28.7009 24.7668C28.1631 24.5717 27.772 24.4752 27.3819 25.0583C26.9907 25.6425 25.8668 26.9555 25.5252 27.3445C25.1836 27.7336 24.8409 27.7818 24.2547 27.4903C23.6685 27.1988 21.7792 26.5832 19.5392 24.5963C17.7964 23.0501 16.6195 21.1406 16.2768 20.5565C15.9341 19.9723 16.2407 19.6572 16.5338 19.3668C16.7976 19.1056 17.12 18.6862 17.4131 18.3453C17.7062 18.0045 17.8043 17.7612 17.9993 17.3721C18.1943 16.983 18.0974 16.6422 17.9508 16.3506C17.8043 16.0591 16.6319 13.1887 16.1426 12.0215C15.6669 10.8845 15.1833 11.0381 14.8237 11.0202C14.4821 11.0034 14.0909 11 13.6997 11C13.3085 11 12.6739 11.1458 12.1361 11.7299C11.5984 12.3141 10.0833 13.7246 10.0833 16.5939C10.0833 19.4644 12.1846 22.2361 12.4777 22.6252C12.7708 23.0142 16.6127 28.9042 22.495 31.4293C23.894 32.0303 24.9864 32.3891 25.8375 32.657C27.2421 33.1011 28.5205 33.0383 29.5317 32.888C30.6579 32.721 33.0016 31.4775 33.4897 30.1152C33.9778 28.7528 33.9778 27.5856 33.8313 27.3423C33.6847 27.1023 33.2947 26.9566 32.7084 26.6639Z"
        fill="white"
      />
      <defs>
        <linearGradient
          id="paint0_linear_7927_339227"
          x1="22"
          y1="0.958977"
          x2="22"
          y2="42.5781"
          gradientUnits="userSpaceOnUse"
        >
          <stop stopColor="#16CA4E" />
          <stop offset="1" stopColor="#14B847" />
        </linearGradient>
      </defs>
    </svg>