<?xml version="1.0" standalone="no"?>
<!DOCTYPE svg PUBLIC "-//W3C//DTD SVG 20010904//EN"
 "http://www.w3.org/TR/2001/REC-SVG-20010904/DTD/svg10.dtd">
<svg version="1.0" xmlns="http://www.w3.org/2000/svg"
 width="35.000000pt" height="35.000000pt" viewBox="0 0 205.000000 264.000000"
 preserveAspectRatio="xMidYMid meet">

<g transform="translate(0.000000,264.000000) scale(0.100000,-0.100000)"
fill="#000000" stroke="none">
<path d="M513 2633 c285 -2 749 -2 1030 0 282 1 49 2 -518 2 -567 0 -797 -1
-512 -2z"/>
<path d="M1575 2614 c-122 -14 -205 -30 -237 -46 -21 -10 -44 -18 -52 -18 -8
0 -21 -6 -28 -13 -7 -7 -33 -24 -58 -38 -24 -13 -51 -31 -60 -40 -9 -8 -25
-22 -36 -30 -23 -17 -85 -111 -104 -159 -8 -19 -20 -41 -27 -48 -7 -7 -13 -21
-13 -30 -1 -29 -11 -96 -20 -130 -5 -18 -6 -66 -3 -105 5 -61 11 -76 34 -100
16 -15 30 -23 34 -17 3 5 18 10 33 10 74 1 97 29 77 96 -7 26 -9 48 -3 57 5 9
8 33 6 54 -2 37 40 185 54 191 5 2 8 8 8 14 0 19 53 78 70 78 10 0 32 13 49
29 18 17 34 30 37 30 13 -1 70 14 79 21 25 18 74 28 83 17 20 -26 32 -105 23
-153 -5 -27 -8 -52 -5 -55 10 -17 -41 -132 -72 -161 -19 -18 -34 -38 -34 -45
0 -20 20 -26 37 -11 15 11 16 11 10 -5 -4 -10 -7 -21 -7 -23 0 -2 -6 -4 -14
-4 -8 0 -16 -7 -20 -15 -3 -8 -21 -23 -41 -32 -19 -9 -35 -20 -35 -24 0 -4
-11 -10 -25 -13 -14 -4 -25 -11 -25 -17 0 -18 30 -22 48 -6 9 8 34 17 54 20
26 3 45 14 64 36 14 17 30 29 34 26 5 -3 11 -1 15 5 4 6 11 8 16 4 30 -18 129
144 129 210 0 11 7 34 15 50 12 22 14 57 11 165 -7 197 -15 233 -55 230 -9 -1
-29 -4 -46 -5z"/>
<path d="M469 2184 c-8 -96 0 -176 21 -194 3 -3 16 -21 27 -40 12 -19 38 -44
57 -54 20 -11 36 -23 36 -27 0 -6 60 -31 80 -34 3 0 10 -3 15 -7 6 -4 36 -9
66 -13 59 -7 75 1 79 40 5 43 2 46 -50 44 -28 -2 -56 3 -62 9 -7 7 -21 12 -33
12 -57 0 -145 88 -145 145 0 29 3 33 35 38 42 7 131 -27 177 -66 16 -15 36
-27 44 -27 8 0 14 -4 14 -10 0 -5 5 -10 10 -10 6 0 10 13 10 28 0 34 -80 120
-120 128 -14 3 -37 12 -52 20 -14 8 -41 13 -60 13 -18 -1 -59 2 -90 6 -33 4
-58 4 -59 -1z"/>
<path d="M1489 1786 c-2 -2 -35 -7 -74 -10 -85 -6 -139 -21 -163 -44 -28 -29
-70 -52 -94 -52 -27 0 -74 -72 -69 -105 4 -25 30 -55 47 -55 7 0 22 -10 33
-21 18 -19 26 -21 77 -14 38 4 69 16 91 32 44 34 233 70 233 46 0 -5 19 -16
43 -26 49 -21 102 -83 128 -153 20 -53 25 -109 10 -119 -5 -3 -13 -20 -16 -37
-10 -41 -75 -110 -139 -146 -46 -26 -59 -29 -136 -27 -47 1 -96 7 -110 12 -18
8 -27 7 -32 -1 -5 -8 -13 -8 -28 2 -11 6 -29 12 -40 12 -13 0 -24 10 -31 27
-10 28 -39 54 -51 47 -3 -2 -12 12 -18 31 -12 37 -24 50 -39 41 -10 -6 40
-134 56 -145 6 -3 13 -18 17 -33 4 -17 13 -28 24 -28 21 -1 52 -23 52 -39 0
-8 -5 -9 -19 -1 -53 28 -72 -13 -20 -43 35 -20 34 -36 -5 -55 -15 -8 -34 -29
-42 -47 -7 -19 -18 -37 -24 -40 -14 -8 -2 -72 19 -105 8 -14 30 -39 48 -55 18
-17 33 -37 33 -46 0 -8 7 -24 15 -35 33 -44 4 -144 -63 -218 -20 -23 -39 -40
-42 -40 -3 1 -28 -9 -57 -22 -43 -20 -62 -23 -115 -18 -69 6 -138 23 -138 34
0 4 -13 13 -29 20 -17 7 -44 34 -65 68 -36 56 -40 68 -37 108 1 11 -3 32 -8
47 -8 19 -7 34 1 52 12 28 2 48 -12 25 -6 -9 -10 -10 -10 -3 0 21 50 107 80
136 17 16 30 36 30 43 0 8 9 14 20 14 11 0 20 5 20 11 0 5 5 7 10 4 6 -3 10 0
10 8 0 15 -46 12 -56 -4 -3 -5 -14 -9 -25 -9 -10 0 -31 -14 -46 -30 -15 -17
-36 -30 -50 -30 -12 0 -24 -6 -25 -12 0 -7 -2 -17 -2 -23 -1 -5 -8 -20 -14
-33 -18 -32 -35 -17 -27 24 5 30 4 33 -12 27 -10 -4 -23 -12 -29 -18 -18 -17
-46 -76 -40 -83 3 -3 1 -11 -5 -19 -15 -17 -16 -195 -2 -243 5 -20 26 -59 46
-87 20 -28 34 -53 31 -55 -5 -6 75 -93 86 -93 4 0 29 -14 56 -31 53 -34 184
-64 279 -64 47 0 173 39 203 63 8 6 23 12 33 14 34 5 99 43 99 57 0 8 18 33
40 56 34 35 48 62 38 73 -2 1 8 17 21 35 12 18 25 52 28 75 2 23 12 56 21 74
15 31 15 35 -12 110 -15 43 -32 93 -36 111 -9 38 -27 62 -46 62 -8 0 -14 5
-14 11 0 6 -11 25 -25 43 -40 53 -35 59 43 49 115 -14 181 -9 245 21 32 14 71
26 87 26 17 0 34 8 43 20 8 11 16 18 19 15 3 -3 20 11 37 32 17 21 43 49 57
64 14 14 26 36 28 50 4 40 18 84 29 91 6 3 11 21 12 40 1 18 5 46 10 61 8 30
-6 95 -34 162 -10 22 -24 60 -31 85 -8 25 -26 54 -40 65 -14 11 -37 32 -52 47
-14 16 -30 28 -36 28 -5 0 -21 9 -36 21 -14 11 -26 18 -26 14 0 -3 -12 1 -27
9 -72 39 -200 76 -214 62z"/>
<path d="M403 1755 c-5 -9 -17 -17 -26 -19 -9 -1 -20 -5 -23 -9 -4 -4 -16 -7
-26 -7 -10 0 -28 -6 -40 -12 -36 -21 -131 -94 -155 -120 -33 -35 -74 -118 -79
-158 -10 -80 -12 -200 -3 -206 5 -3 6 -22 3 -44 -5 -31 -2 -42 16 -60 12 -12
32 -36 44 -53 61 -90 94 -127 128 -143 21 -9 45 -25 54 -35 10 -11 27 -19 39
-19 13 0 38 -6 56 -14 54 -21 171 -29 254 -15 61 9 77 16 90 36 9 14 22 22 30
19 17 -6 123 71 156 115 48 64 89 167 89 222 0 16 5 37 10 48 6 11 8 24 5 29
-9 14 -35 0 -35 -20 0 -19 -25 -34 -41 -24 -12 7 -11 71 1 79 16 10 12 23 -9
30 -12 3 -23 21 -30 48 -10 41 -84 138 -95 126 -4 -3 7 -32 24 -65 16 -32 30
-71 30 -86 0 -15 5 -30 10 -33 7 -4 7 -12 0 -25 -5 -10 -10 -34 -11 -52 0 -18
-3 -27 -6 -20 -9 23 -22 12 -48 -44 -35 -74 -98 -136 -155 -154 -25 -7 -50
-17 -56 -22 -28 -21 -185 8 -221 41 -10 9 -25 20 -35 23 -20 8 -72 83 -84 123
-28 89 22 211 102 250 23 11 48 26 57 33 9 8 20 11 26 8 17 -11 61 13 73 39 6
14 18 25 26 25 12 0 14 11 9 60 -11 102 -15 110 -52 110 -18 0 -46 3 -63 6
-22 4 -32 2 -39 -11z"/>
</g>
</svg>
